<svg width="76" height="32" xmlns="http://www.w3.org/2000/svg"><g id="SEDNA"><path d="M1.418 23.723v-2.32q.398.35.955.632.557.281 1.172.475.615.193 1.236.299.621.105 1.149.105 1.816 0 2.713-.674.896-.674.896-1.94 0-.679-.299-1.183t-.826-.92q-.527-.416-1.248-.797-.72-.38-1.553-.802-.879-.446-1.64-.903-.762-.457-1.325-1.008-.562-.55-.884-1.247-.323-.698-.323-1.635 0-1.149.504-1.998.504-.85 1.325-1.4.82-.552 1.869-.821 1.048-.27 2.138-.27 2.485 0 3.621.598v2.215Q9.41 9.098 7.078 9.098q-.644 0-1.289.134-.644.135-1.148.44-.504.305-.82.785-.317.48-.317 1.172 0 .644.24 1.113t.71.856q.468.386 1.142.75.674.363 1.552.796.903.446 1.711.938.809.492 1.418 1.09.61.598.967 1.324.358.727.358 1.664 0 1.242-.487 2.104-.486.861-1.312 1.4-.826.54-1.905.78-1.078.24-2.273.24-.398 0-.984-.065-.586-.064-1.196-.187t-1.154-.305q-.545-.182-.873-.404z" id="S" fill="#6B758C"/><path d="M23.86 24.402h-8.907V7.598h8.531v1.78h-6.562v5.59h6.07v1.77h-6.07v5.883h6.937v1.781z" id="E" fill="#FFF"/><path d="M27.094 24.402V7.598h4.64q8.883 0 8.883 8.191 0 3.89-2.467 6.252-2.466 2.361-6.603 2.361h-4.453zm30.375 0h-2.414l-8.649-13.394q-.328-.504-.539-1.055h-.07q.094.54.094 2.309v12.14h-1.97V7.598h2.556L54.89 20.78q.527.82.68 1.125h.046q-.117-.726-.117-2.472V7.598h1.969v16.804zm15.234 0h2.18L68.414 7.598h-2.039L59.93 24.402h2.191l1.676-4.71h7.125l1.781 4.71zM29.063 9.38v13.24h2.507q3.305 0 5.145-1.77 1.84-1.769 1.84-5.015 0-6.457-6.867-6.457h-2.625zm38.578 1.383l2.636 7.16h-5.824l2.613-7.16q.153-.41.27-1.125h.047q.129.773.258 1.125z" id="DNA" fill="#6B758C"/></g></svg>