<?xml version="1.0" encoding="utf-8"?>
<svg width="76px" height="32px" viewBox="0 0 76 32" version="1.1" xmlns:xlink="http://www.w3.org/1999/xlink" xmlns="http://www.w3.org/2000/svg">
  <desc>Created with Lunacy</desc>
  <g id="SEDNA">
    <g id="S" fill="#6B758C">
      <path d="M1.41797 23.7227L1.41797 21.4023Q1.81641 21.7539 2.37305 22.0352Q2.92969 22.3164 3.54492 22.5098Q4.16016 22.7031 4.78125 22.8086Q5.40234 22.9141 5.92969 22.9141Q7.74609 22.9141 8.64258 22.2402Q9.53906 21.5664 9.53906 20.3008Q9.53906 19.6211 9.24023 19.1172Q8.94141 18.6133 8.41406 18.1973Q7.88672 17.7813 7.16602 17.4004Q6.44531 17.0195 5.61328 16.5977Q4.73438 16.1523 3.97266 15.6953Q3.21094 15.2383 2.64844 14.6875Q2.08594 14.1367 1.76367 13.4395Q1.44141 12.7422 1.44141 11.8047Q1.44141 10.6563 1.94531 9.80664Q2.44922 8.95703 3.26953 8.40625Q4.08984 7.85547 5.13867 7.58594Q6.1875 7.31641 7.27734 7.31641Q9.76172 7.31641 10.8984 7.91406L10.8984 10.1289Q9.41016 9.09766 7.07813 9.09766Q6.43359 9.09766 5.78906 9.23242Q5.14453 9.36719 4.64063 9.67188Q4.13672 9.97656 3.82031 10.457Q3.50391 10.9375 3.50391 11.6289Q3.50391 12.2734 3.74414 12.7422Q3.98438 13.2109 4.45313 13.5977Q4.92187 13.9844 5.5957 14.3477Q6.26953 14.7109 7.14844 15.1445Q8.05078 15.5898 8.85938 16.082Q9.66797 16.5742 10.2773 17.1719Q10.8867 17.7695 11.2441 18.4961Q11.6016 19.2227 11.6016 20.1602Q11.6016 21.4023 11.1152 22.2637Q10.6289 23.125 9.80273 23.6641Q8.97656 24.2031 7.89844 24.4434Q6.82031 24.6836 5.625 24.6836Q5.22656 24.6836 4.64063 24.6191Q4.05469 24.5547 3.44531 24.4316Q2.83594 24.3086 2.29102 24.127Q1.74609 23.9453 1.41797 23.7227Z" />
    </g>
    <g id="E" fill="#FFFFFF">
      <path d="M23.8594 24.4023L14.9531 24.4023L14.9531 7.59766L23.4844 7.59766L23.4844 9.37891L16.9219 9.37891L16.9219 14.9688L22.9922 14.9688L22.9922 16.7383L16.9219 16.7383L16.9219 22.6211L23.8594 22.6211L23.8594 24.4023Z" />
    </g>
    <g id="DNA" fill="#6B758C">
      <path d="M27.0938 24.4023L27.0938 7.59766L31.7344 7.59766Q40.6172 7.59766 40.6172 15.7891Q40.6172 19.6797 38.1504 22.041Q35.6836 24.4023 31.5469 24.4023L27.0938 24.4023ZM57.4688 24.4023L55.0547 24.4023L46.4063 11.0078Q46.0781 10.5039 45.8672 9.95313L45.7969 9.95313Q45.8906 10.4922 45.8906 12.2617L45.8906 24.4023L43.9219 24.4023L43.9219 7.59766L46.4766 7.59766L54.8906 20.7813Q55.418 21.6016 55.5703 21.9063L55.6172 21.9063Q55.5 21.1797 55.5 19.4336L55.5 7.59766L57.4688 7.59766L57.4688 24.4023ZM72.7031 24.4023L74.8828 24.4023L68.4141 7.59766L66.375 7.59766L59.9297 24.4023L62.1211 24.4023L63.7969 19.6914L70.9219 19.6914L72.7031 24.4023ZM29.0625 9.37891L29.0625 22.6211L31.5703 22.6211Q34.875 22.6211 36.7148 20.8516Q38.5547 19.082 38.5547 15.8359Q38.5547 9.37891 31.6875 9.37891L29.0625 9.37891ZM67.6406 10.7617L70.2773 17.9219L64.4531 17.9219L67.0664 10.7617Q67.2188 10.3516 67.3359 9.63672L67.3828 9.63672Q67.5117 10.4102 67.6406 10.7617Z" />
    </g>
  </g>
</svg>